# xmcd
#
# Track frame offsets:
#  150
#  20575
#  43250
#  92562
#  124432
#  174775
#  206227
#  250105
#  293795
#
# Disc length: 4338 seconds
#
# Revision: 0
# Processed by: cddbd v1.5.2PL0 Copyright (c) Steve Scherf et al.
# Submitted via: Collectorz.com_Music_Collector 6.11
#
DISCID=7f10f009
DTITLE=Eric Clapton - Acoustic - Live In New York 1992
DYEAR=1992
DGENRE=Acoustic - Blues
TTITLE0=The Circus Left Town
TTITLE1=Tears In Heaven
TTITLE2=Before You Acuuse Me
TTITLE3=Tearing Us Apart
TTITLE4=Old Love
TTITLE5=Badge
TTITLE6=Wonderful Tonight
TTITLE7=Layla
TTITLE8=Crossrods
EXTD=
EXTT0=
EXTT1=
EXTT2=
EXTT3=
EXTT4=
EXTT5=
EXTT6=
EXTT7=
EXTT8=
PLAYORDER=
